<svg xmlns="http://www.w3.org/2000/svg" viewBox="0 0 988 306" width="988" height="306">
	<style>
		tspan { white-space:pre }
		.shp0 { fill: #ffffff } 
	</style>
	<path id="Path 0" fill-rule="evenodd" class="shp0" d="M440.83 0.89C442.46 0.82 446.46 1.26 449.73 1.87C452.99 2.47 457.44 3.85 459.62 4.94C461.79 6.03 465.47 8.77 467.79 11.02C470.11 13.28 472 15.45 471.99 15.86C471.98 16.27 468.63 19.16 457.11 27.97L454.9 25.8C453.69 24.61 451.02 22.94 448.98 22.1C446.95 21.25 443.48 20.56 441.28 20.56C438.31 20.56 436.64 21.2 434.85 23.03C433.51 24.39 432.42 26.39 432.42 27.48C432.42 28.56 433.64 30.48 435.14 31.73C436.77 33.09 441.04 34.71 445.77 35.77C450.12 36.75 456.31 38.73 459.53 40.17C462.79 41.64 466.73 44.38 468.43 46.37C470.11 48.33 472.03 51.66 472.7 53.78C473.37 55.9 473.92 60.74 473.92 64.55C473.91 69.13 473.3 72.81 472.11 75.43C471.12 77.6 468.35 81.13 465.95 83.28C463.55 85.42 459.15 88.31 456.15 89.7C451.41 91.91 449.4 92.23 440.32 92.23C430.62 92.23 429.49 92.02 423.5 89.07C419.98 87.33 415.09 83.88 408.19 76.89L414.76 69.98C418.37 66.18 421.82 63.07 422.42 63.07C423.03 63.07 425.19 64.35 427.23 65.91C429.27 67.48 432.49 69.26 434.4 69.88C436.3 70.5 439.64 71.02 441.81 71.03C444.27 71.04 446.81 70.28 448.49 69.03C449.99 67.93 451.22 66.24 451.24 65.29C451.25 64.34 450.25 62.59 449.01 61.39C447.77 60.2 444.09 58.53 440.83 57.68C437.56 56.83 434.22 56.14 433.41 56.14C432.59 56.14 429.26 54.87 425.99 53.3C422.73 51.74 418.64 48.96 416.9 47.12C415.16 45.29 412.84 41.79 411.73 39.34C410.43 36.46 409.72 32.8 409.71 28.96C409.71 25.7 410.26 21.3 410.93 19.18C411.6 17.06 413.7 13.57 415.61 11.42C417.51 9.27 421.29 6.44 424.01 5.13C426.73 3.82 430.96 2.36 433.41 1.88C435.86 1.4 439.19 0.95 440.83 0.89ZM518.95 1.34C523.05 1.64 527.89 2.76 530.82 4.08C533.54 5.31 537.66 8.19 539.97 10.47C542.28 12.76 544.87 16.07 545.73 17.84C546.59 19.61 547.1 21.5 546.87 22.04C546.63 22.58 542.59 24.59 529.32 29.95L526.61 27.24C525.12 25.75 522.12 24.05 519.94 23.47C517.77 22.88 514.65 22.71 513.02 23.1C511.39 23.48 509.16 24.36 508.07 25.05C506.99 25.74 505.52 27.57 504.81 29.11C503.89 31.15 503.61 36.48 504.12 65.01L506.86 67.74C509.25 70.13 510.37 70.48 515.59 70.48C521.25 70.48 521.76 70.28 528.35 63.07L537.99 67.58C543.29 70.06 547.74 72.28 547.88 72.52C548.02 72.76 547.28 74.4 546.24 76.17C545.21 77.93 542.2 81.36 539.57 83.78C536.93 86.2 532.77 89.09 530.33 90.21C526.68 91.86 523.9 92.23 515 92.2C505.76 92.18 503.37 91.83 499.17 89.89C496.45 88.63 492.67 86.37 490.77 84.86C488.86 83.34 485.97 79.71 481.37 71.47L481.09 49.23C480.87 31.78 481.12 25.92 482.28 22.04C483.08 19.32 485.26 15.32 487.11 13.14C488.97 10.97 492.88 7.87 495.82 6.25C498.75 4.64 503.6 2.76 506.59 2.08C509.72 1.36 514.98 1.05 518.95 1.34ZM589.17 0.88C591.34 0.85 596.02 1.42 599.55 2.16C603.09 2.9 607.87 4.45 610.18 5.6C612.5 6.76 615.98 9.15 617.93 10.92C619.88 12.68 622.55 16.36 623.87 19.07C626.2 23.86 626.28 24.72 626.28 46.26C626.28 63.17 625.93 69.57 624.82 72.95C624.02 75.4 621.57 79.29 619.37 81.61C617.17 83.92 612.37 87.25 608.7 89.02C602.3 92.1 601.54 92.23 590.16 92.21C579.97 92.19 577.45 91.85 572.36 89.82C568.46 88.26 564.7 85.72 561.4 82.42C558.08 79.1 555.8 75.73 554.69 72.46C553.25 68.26 553.04 64.17 553.57 23.03L556.53 17.71C558.16 14.79 561.06 11.18 562.96 9.69C564.87 8.2 567.98 6.2 569.88 5.24C571.79 4.28 576.02 2.92 579.28 2.21C582.54 1.51 586.99 0.91 589.17 0.88ZM577.57 28.56C576.16 30.55 575.88 33.48 575.87 46.76C575.85 57.46 576.25 63.37 577.08 65.05C577.76 66.4 579.87 68.29 581.77 69.25C583.66 70.2 587.33 70.97 589.91 70.98C592.49 70.98 595.94 70.31 597.57 69.49C599.21 68.68 601.21 67.01 602.03 65.79C603.22 64.02 603.52 60.09 603.52 46.76C603.52 32.29 603.28 29.61 601.79 27.54C600.83 26.21 598.6 24.54 596.83 23.83C595.07 23.12 591.73 22.55 589.42 22.58C587.1 22.6 583.87 23.42 582.23 24.4C580.59 25.38 578.49 27.25 577.57 28.56ZM298.06 2.63L320.98 2.94C341.64 3.22 344.35 3.46 348.36 5.29C350.81 6.41 354.73 9.08 357.08 11.22C359.44 13.37 362.33 17.12 363.51 19.57C365.54 23.75 365.67 25.41 365.67 47.25C365.67 66.22 365.38 71.12 364.12 73.94C363.26 75.85 360.99 79.18 359.06 81.36C357.04 83.65 352.9 86.56 342.92 91.24L297.92 91.74L297.92 69.99L315.72 69.99C329.35 69.99 334.34 69.64 336.99 68.51C338.89 67.69 340.89 66.13 341.44 65.05C341.98 63.96 342.43 55.73 342.43 46.76C342.43 37.78 342.09 29.71 341.68 28.82C341.28 27.93 339.72 26.59 338.22 25.85C336.66 25.08 332.34 24.51 320.67 24.51L320.67 41.32C320.67 51.53 320.28 58.32 319.68 58.62C319.14 58.89 314.06 55 298.09 40.82L298.07 21.73L298.06 2.63ZM377.04 2.76L399.78 2.76L399.78 91.74L377.04 91.74L377.04 2.76ZM637.13 2.76L659.63 2.74C678.52 2.72 682.99 3 687.49 4.47C690.44 5.43 694.67 7.81 696.89 9.76C699.1 11.7 702.02 15.48 703.36 18.16C705.48 22.38 705.8 24.34 705.78 32.91C705.75 41.24 705.37 43.64 703.33 48.14C702.01 51.08 699.47 54.75 697.71 56.3C695.94 57.85 693.42 59.67 692.12 60.35C689.76 61.58 689.79 61.64 701.02 75.67C707.22 83.42 712.07 90.21 711.8 90.75C711.5 91.34 705.8 91.73 684.11 91.7L674.22 77.9C668.03 69.26 663.68 64.09 662.6 64.08C661.03 64.06 660.87 65.37 660.87 91.74L637.13 91.74L637.13 2.76ZM660.87 43.3C672.56 43.3 676.85 42.72 678.42 41.95C679.92 41.21 681.74 39.31 682.47 37.75C683.21 36.18 683.54 33.67 683.22 32.17C682.89 30.68 681.51 28.34 680.15 26.98C677.9 24.73 676.92 24.51 669.27 24.51L660.87 24.51L660.87 43.3ZM717.37 2.63L740.3 2.94C762.55 3.25 763.38 3.33 768.66 5.81C771.65 7.21 775.61 9.88 777.45 11.74C779.29 13.6 781.74 16.9 782.89 19.07C784.85 22.79 784.98 24.49 784.98 47.25C784.98 70 784.85 71.71 782.89 75.43C781.74 77.6 778.62 81.29 775.97 83.61C773.31 85.94 769.13 88.58 766.69 89.48C763.15 90.77 757.59 91.17 717.24 91.74L717.24 69.99L736.94 69.74C756.45 69.5 756.67 69.47 761.79 64.55L761.77 47C761.74 29.62 761.72 29.43 759.27 26.98C757.02 24.73 756.04 24.51 739.98 24.51L739.49 60.39L717.24 40.33L717.3 21.48L717.37 2.63ZM90.49 50.3C90.9 50.26 91.9 51.55 92.72 53.18C93.53 54.81 94.09 56.3 93.95 56.49C93.82 56.69 90.59 57.6 86.78 58.54C82.97 59.47 75.85 62.11 70.96 64.41C66.06 66.71 58.72 70.88 54.64 73.67C50.56 76.46 46.55 79.67 45.74 80.8C44.61 82.35 46.91 81.56 55.13 77.54C61.12 74.61 69.57 71.05 73.93 69.63C78.28 68.21 86.29 66.05 91.73 64.84C100.45 62.89 104.41 62.63 125.35 62.63C146.29 62.63 150.25 62.89 158.98 64.84C164.41 66.05 172.42 68.21 176.78 69.63C181.13 71.05 189.81 74.6 207.43 82.8L203.48 79.23C201.3 77.27 196.63 73.77 193.09 71.47C189.56 69.17 183.55 65.92 179.74 64.26C175.94 62.6 169.26 60.23 164.91 58.99C160.56 57.74 156.89 56.6 156.75 56.44C156.61 56.28 157.17 54.81 157.99 53.18C159.4 50.35 159.68 50.24 164.17 50.84C166.75 51.19 172.65 52.55 177.27 53.87C181.89 55.2 189.46 58.06 194.08 60.22C198.71 62.39 205.6 66.1 209.41 68.47C215.7 72.38 216.75 73.53 220.91 81.02C223.43 85.56 227.52 94.38 230 100.64C232.48 106.89 236.08 117.34 238.01 123.87C239.93 130.39 242.64 141.29 244.03 148.09C245.42 154.89 247.43 167.23 248.5 175.53C249.58 183.82 250.45 192.6 250.45 195.05C250.45 199.32 250.16 199.77 243.12 206.17C239.09 209.84 232.08 215.05 227.55 217.74C223.01 220.44 214.41 224.36 208.42 226.46C202.44 228.56 193.32 230.91 188.15 231.69C182.98 232.47 178.31 233.12 177.77 233.15C177.22 233.18 174.88 230.74 172.57 227.72C170.26 224.71 168.15 221.57 167.88 220.76C167.6 219.94 167.94 219.28 168.62 219.29C169.3 219.3 174.3 217.13 179.74 214.46C185.18 211.79 192.75 207.35 196.56 204.59C200.36 201.82 205.7 197.51 208.42 195.01C211.37 192.3 212.37 190.95 210.89 191.69C209.54 192.36 206.2 194.35 203.48 196.1C200.76 197.85 194.42 201.11 189.39 203.35C184.35 205.58 175.23 208.72 169.11 210.32C162.99 211.91 154.43 213.77 150.07 214.45C145.72 215.12 134.37 215.66 124.86 215.65C113.1 215.63 104.53 215.09 98.15 213.96C92.99 213.05 84.53 211.15 79.36 209.75C74.2 208.35 65.96 205.4 61.07 203.21C56.17 201.02 49.16 197.28 45.49 194.91C41.82 192.54 38.93 190.97 39.06 191.41C39.2 191.85 41.76 194.43 44.75 197.12C47.74 199.82 52.86 203.86 56.12 206.1C59.39 208.33 66.29 212.22 71.45 214.73C76.62 217.25 81.4 219.3 82.08 219.29C82.76 219.28 83.32 219.72 83.32 220.26C83.32 220.81 81.32 223.92 78.87 227.18C76.42 230.44 73.86 233.11 73.18 233.11C72.5 233.1 67.72 232.46 62.55 231.68C57.39 230.9 48.48 228.65 42.77 226.68C37.06 224.71 28.38 220.73 23.49 217.83C18.59 214.94 11.36 209.63 7.42 206.03C0.55 199.77 0.25 199.31 0.25 195.05C0.25 192.6 1.13 183.82 2.2 175.53C3.27 167.23 5.28 154.89 6.66 148.09C8.05 141.29 10.98 129.73 13.18 122.39C15.38 115.05 19.24 104.15 21.74 98.16C24.25 92.18 28.12 84.03 30.33 80.05C33.71 73.98 35.33 72.2 40.3 69.06C43.56 67.01 49.35 63.76 53.16 61.85C56.96 59.94 63.42 57.18 67.5 55.72C71.58 54.26 78.25 52.46 82.33 51.73C86.41 50.99 90.08 50.35 90.49 50.3ZM76.06 136.03C74.51 137.5 72.33 140.48 71.22 142.65C69.78 145.45 69.18 148.49 69.18 153.03C69.18 157.52 69.79 160.66 71.18 163.41C72.28 165.59 74.68 168.73 76.52 170.39C78.36 172.05 81.64 173.99 83.81 174.7C86.14 175.46 89.19 175.72 91.23 175.32C93.14 174.95 96.36 173.57 98.4 172.25C100.44 170.92 103.33 167.73 104.83 165.14C107.14 161.16 107.55 159.33 107.55 153.03C107.55 146.74 107.14 144.91 104.83 140.92C103.33 138.34 100.44 135.12 98.4 133.78C96.36 132.43 92.69 131.09 90.24 130.8C87.3 130.45 84.62 130.79 82.33 131.82C80.43 132.67 77.61 134.57 76.06 136.03ZM151.81 134.06C150.04 135.25 147.37 138.34 145.87 140.92C143.56 144.91 143.15 146.74 143.15 153.03C143.15 159.33 143.56 161.16 145.87 165.14C147.37 167.73 150.26 170.93 152.3 172.27C154.34 173.6 157.79 175.01 159.96 175.39C163.15 175.95 164.98 175.57 169.36 173.47C172.73 171.84 175.8 169.43 177.44 167.13C178.89 165.09 180.58 161.19 181.2 158.47C181.81 155.75 182.02 151.75 181.65 149.57C181.29 147.4 180.19 144.06 179.22 142.16C178.25 140.26 176.19 137.5 174.64 136.03C173.1 134.57 170.16 132.68 168.12 131.83C166.08 130.99 163.41 130.33 162.19 130.38C160.97 130.43 158.85 130.79 157.49 131.18C156.13 131.57 153.57 132.87 151.81 134.06ZM666.31 117.31C668.48 117.5 670.71 118 671.25 118.41C671.8 118.83 673.8 119.64 675.7 120.22C677.68 120.82 681.08 123.34 683.61 126.07C686.06 128.71 688.4 131.85 688.81 133.05C689.28 134.44 689.1 135.51 688.32 135.98C687.65 136.39 684.2 137.88 674.22 141.86L669.77 138.89C666.04 136.4 664.57 135.98 660.74 136.32C657.99 136.56 655.32 137.51 654.04 138.7C652.01 140.57 651.9 141.52 651.97 173.8L654.65 175.53C656.35 176.63 659.26 177.26 662.65 177.26C667.27 177.26 668.25 176.9 670.11 174.55C671.28 173.06 672.91 171.85 673.72 171.85C674.54 171.85 678.1 173.26 681.64 174.98C685.17 176.69 688.39 178.58 688.79 179.16C689.19 179.74 689.52 180.67 689.52 181.21C689.51 181.75 686.96 184.65 683.84 187.64C679.91 191.41 676.51 193.64 672.73 194.94C668.59 196.36 665.41 196.71 659.38 196.39C653.15 196.06 650.23 195.35 645.6 193.04C641.6 191.05 638.75 188.74 636.69 185.84C635.03 183.49 633.15 180.16 632.51 178.43C631.79 176.48 631.33 168.51 631.29 157.48C631.25 146.38 631.68 138.2 632.41 135.73C633.16 133.25 635.63 129.72 639.07 126.24C642.72 122.55 645.71 120.45 648.01 119.95C649.91 119.53 651.92 118.83 652.46 118.39C653.01 117.95 655.45 117.45 657.9 117.27C660.35 117.09 664.13 117.11 666.31 117.31ZM883.88 117.56C888.77 117.48 893.22 117.79 893.77 118.25C894.31 118.71 896.65 119.61 898.96 120.24C901.27 120.88 905.01 123.07 907.27 125.11C909.53 127.14 912.19 130.59 913.18 132.77C914.73 136.17 914.99 139.5 915 156.49C915.01 167.37 914.6 177.82 914.09 179.73C913.53 181.81 911.26 184.98 908.41 187.68C905.49 190.44 901.36 193.04 897.72 194.42C892.67 196.33 890.31 196.62 881.9 196.33C873.27 196.04 871.27 195.62 866.19 193.05C862.99 191.43 859.02 188.55 857.37 186.65C855.72 184.74 853.78 181.74 853.05 179.97C852.11 177.67 851.73 171.18 851.73 156.99C851.73 140.2 852 136.67 853.47 133.58C854.42 131.59 857.42 127.97 860.14 125.55C862.86 123.13 867.31 120.37 870.03 119.43C873.11 118.36 878.33 117.65 883.88 117.56ZM873.71 139.57C871.55 141.58 871.46 142.29 871.49 157.24L871.51 172.81C876.78 177.19 878.57 177.75 882.39 177.75C885.11 177.75 888.34 177.37 889.56 176.9C890.79 176.43 892.57 175.32 893.52 174.43C895.03 173.02 895.25 170.78 895.25 156.99L895.25 141.17C889.91 136.72 888.28 136.24 884.12 136.31C881.27 136.35 878.26 136.63 877.45 136.93C876.63 137.22 874.95 138.41 873.71 139.57ZM320.85 119.91L323.22 126.84C324.53 130.64 326.31 136.42 327.18 139.69C328.05 142.95 329.1 146.06 329.51 146.61C329.93 147.15 331 150.6 331.9 154.27C332.79 157.94 333.52 162.06 333.52 163.41C333.52 164.77 333.97 166.11 334.51 166.38C335.06 166.65 335.55 167.88 335.61 169.1C335.67 170.32 336.29 168.43 336.99 164.9C337.69 161.36 339.31 155.13 340.6 151.06C341.89 146.98 344.72 138.19 350.83 119.42L361.46 119.42C367.89 119.42 372.09 119.81 372.09 120.41C372.09 120.95 371.17 123.96 370.05 127.08C368.92 130.21 367.64 133.66 367.2 134.74C366.75 135.83 365.19 140.06 363.72 144.14C362.24 148.21 359.96 154.33 358.65 157.73C357.34 161.13 356.27 164.35 356.27 164.9C356.27 165.44 355.42 167.78 354.38 170.09C353.34 172.4 351.73 176.74 350.79 179.73C349.85 182.72 348.76 185.61 348.36 186.15C347.97 186.7 347.32 188.48 346.93 190.11C346.54 191.74 345.7 193.65 345.06 194.35C344.29 195.21 341.15 195.63 335.5 195.62C327.3 195.6 327.06 195.54 325.76 192.86C325.03 191.34 321.38 181.66 317.65 171.32C313.93 160.99 309.92 149.87 308.76 146.61C307.6 143.35 306.06 139.34 305.35 137.71C304.63 136.08 303.46 132.74 302.75 130.3C302.04 127.85 300.91 124.73 300.24 123.37C299.57 122.02 299.25 120.56 299.54 120.13C299.83 119.7 304.74 119.48 320.85 119.91ZM377.04 119.42L431.43 119.42L431.43 137.22L398.3 137.71L397.81 149.08L428.96 149.57L429.26 155.51C429.42 158.77 429.31 162.44 429.01 163.66C428.48 165.83 428.11 165.89 398.3 166.38L397.81 176.76L431.43 176.76L431.43 195.55L377.04 195.55L377.04 119.42ZM461.51 119.4C474.12 119.39 482.64 119.81 484.83 120.55C486.74 121.18 490.04 123.08 492.18 124.77C494.38 126.5 497.05 129.96 498.35 132.77C500.14 136.63 500.64 139.44 500.64 145.62C500.64 151.81 500.14 154.6 498.35 158.47C497.08 161.19 494.64 164.64 492.92 166.13C491.19 167.63 489.33 168.85 488.79 168.85C488.25 168.85 487.8 169.52 487.8 170.34C487.8 171.15 491.82 176.6 496.73 182.45C501.64 188.29 505.5 193.52 505.3 194.06C505.1 194.62 499.99 195.19 482.36 195.68L475.93 187.48C472.4 182.98 468.28 177.61 466.79 175.56C465.29 173.5 463.62 171.82 463.08 171.82C462.48 171.82 462.09 175.94 462.09 182.2C462.09 187.91 461.87 193.25 461.59 194.06C461.2 195.25 459.12 195.55 451.21 195.55C443.3 195.55 441.22 195.25 440.83 194.06C440.55 193.25 440.26 176.42 440.17 156.66C440.08 136.9 440.37 120.44 440.83 120.08C441.28 119.72 450.59 119.41 461.51 119.4ZM462.09 154.02C475.18 154.02 476.32 153.72 478.45 151.55C479.94 150.04 480.88 147.93 480.88 146.11C480.88 144.14 479.89 142.16 477.91 140.18C475.22 137.49 474.34 137.22 468.52 137.22L462.09 137.22L462.09 154.02ZM531.81 119.91L532.09 155.51C532.24 175.08 532.13 192.1 531.84 193.32C531.34 195.44 530.87 195.55 521.43 195.55C513.51 195.55 511.44 195.25 511.04 194.06C510.77 193.25 510.47 176.42 510.38 156.66C510.29 136.9 510.6 120.43 511.07 120.05C511.54 119.67 516.4 119.48 531.81 119.91ZM597.08 119.91L597.38 126.34C597.54 129.88 597.43 133.77 597.13 134.99C596.6 137.18 596.28 137.22 563.46 137.71L562.96 150.07L576.81 150.07C587.79 150.07 590.96 150.37 592.14 151.55C593.25 152.66 593.56 154.95 593.12 168.36L562.96 168.85L562.96 195.55L553.07 195.55C545.16 195.55 543.08 195.25 542.69 194.06C542.42 193.25 542.12 176.42 542.03 156.66C541.94 136.9 542.24 120.44 542.7 120.06C543.16 119.69 555.59 119.51 597.08 119.91ZM601.6 119.35L621.8 119.91L622.08 155.51C622.23 175.08 622.12 192.1 621.83 193.32C621.33 195.44 620.86 195.55 601.53 195.55L601.6 119.35ZM715.53 119.42L735.04 119.42L736.38 123.62C737.12 125.93 742.72 141.84 748.82 158.97C754.92 176.09 760.25 190.78 760.67 191.59C761.09 192.41 761.28 193.63 761.09 194.31C760.85 195.19 757.95 195.56 751.11 195.59C744.39 195.62 741.14 195.25 740.38 194.35C739.78 193.65 738.52 190.63 737.57 187.64C736.62 184.65 735.33 181.62 734.7 180.92C733.92 180.04 730.74 179.65 715.75 179.73L710.81 195.05L700.43 195.05C690.66 195.05 690.05 194.93 690.16 193.07C690.23 191.99 692.16 185.76 694.44 179.23C696.73 172.71 698.98 166.48 699.44 165.39C699.9 164.3 701.16 160.75 702.25 157.48C703.34 154.22 706.31 145.77 708.85 138.7C711.4 131.63 713.94 124.4 714.5 122.63L715.53 119.42ZM721.26 157.48C720.68 159.66 720.21 161.77 720.21 162.18C720.21 162.59 722.43 162.92 725.15 162.92C728.44 162.92 730.1 162.51 730.1 161.68C730.1 161 729.38 157.78 728.5 154.52C727.62 151.25 726.57 147.25 726.18 145.62C725.48 142.75 725.41 142.83 723.88 148.09C723.01 151.08 721.83 155.31 721.26 157.48ZM814.65 119.91L814.95 126.34C815.11 129.88 815 133.77 814.7 134.99C814.18 137.11 813.7 137.22 794.38 137.22L793.88 195.05L784.49 195.31C777.74 195.49 774.89 195.22 774.36 194.32C773.96 193.63 773.63 180.51 773.61 137.22L763.72 137.22C755.81 137.22 753.73 136.92 753.33 135.73C753.06 134.92 752.77 131.21 752.67 127.49C752.58 123.78 752.89 120.44 753.35 120.07C753.81 119.7 767.79 119.51 814.65 119.91ZM822.14 119.35L841.35 119.91L841.63 155.51C841.78 175.08 841.67 192.1 841.38 193.32C840.88 195.44 840.39 195.55 822.07 195.55L822.1 157.45L822.14 119.35ZM925.91 119.42L935.55 119.39C945.09 119.37 945.21 119.39 946.64 122.11C947.44 123.62 949.62 127.3 951.47 130.3C953.33 133.29 955.24 136.62 955.71 137.71C956.19 138.8 957.91 141.91 959.53 144.63C961.15 147.35 962.89 150.46 963.38 151.55C963.88 152.64 964.89 154.86 965.62 156.49C966.79 159.11 966.97 157.12 967.35 119.42L987.22 119.42L987.22 195.55L966.27 195.05L959.48 183.19C955.74 176.66 951 167.88 945.19 156.02L945.51 173.56C945.69 183.2 945.58 192.1 945.27 193.32C944.73 195.43 944.22 195.55 925.91 195.55L925.91 119.42ZM305.9 229.09L326.11 229.65L326.6 285.51L340.45 285.51C348.06 285.51 354.96 285.73 355.78 286.01C356.96 286.4 357.26 288.42 357.26 305.28L305.83 305.28L305.9 229.09ZM384.95 229.16L384.95 305.28L364.18 305.28L364.02 267.88C363.93 247.31 364.22 230.18 364.68 229.82C365.13 229.46 369.88 229.16 384.95 229.16ZM395.9 229.09L405.9 229.37C414.63 229.62 416.03 229.9 416.99 231.59C417.59 232.66 419.16 235.33 420.47 237.53C421.78 239.72 423.84 243.3 425.03 245.47C426.23 247.65 428.31 251.43 429.66 253.87C431 256.32 432.62 259.21 433.25 260.3C433.88 261.39 434.84 263.5 435.39 265C435.93 266.49 436.82 267.49 437.36 267.22C437.97 266.92 438.35 259.48 438.35 229.16L457.64 229.65L458.13 305.28L436.89 304.79L431.69 295.89C428.83 291 425.78 285.66 424.92 284.03C424.06 282.4 421.72 277.83 416.1 266.7L416.6 305.28L395.83 305.28L395.9 229.09ZM489.86 229.16L490.27 254.9L495.29 248.21C498.04 244.53 502.27 238.75 509.06 229.22L521.18 229.19C528.61 229.17 533.29 229.54 533.29 230.15C533.29 230.69 528.11 237.48 521.78 245.22C515.44 252.97 508.88 260.73 504.12 265.63L508.14 270.38C510.35 272.99 513.23 276.69 514.55 278.59C515.86 280.49 519.71 285.61 523.1 289.96C526.49 294.31 530.17 299.09 531.28 300.59C532.39 302.08 533.29 303.75 533.29 304.3C533.29 304.9 528.51 305.28 508.57 305.28L504.65 299.6C502.5 296.47 498.38 290.69 490.27 279.6L489.78 305.28L469.51 304.79L469.36 268.21C469.29 248.1 469.39 231.08 469.59 230.4C469.85 229.51 472.78 229.16 489.86 229.16Z" />
</svg>