<svg xmlns="http://www.w3.org/2000/svg" viewBox="0 0 345 209" width="345" height="209">
	<defs>
		<linearGradient id="grd1" gradientUnits="userSpaceOnUse"  x1="-13.705" y1="209.388" x2="359.167" y2="2.945">
			<stop offset="0" stop-color="#657ed9"  />
			<stop offset="1" stop-color="#bbcaff"  />
		</linearGradient>
	</defs>
	<style>
		tspan { white-space:pre }
		.shp0 { fill: url(#grd1) } 
		.shp1 { fill: #ffffff;stroke: #000000;stroke-width: 0 } 
		.shp2 { fill: #ffffff } 
	</style>
	<g id="Layer">
		<g id="svg_1">
			<g id="svg_2">
				<path id="svg_3" class="shp0" d="M-11.83 214.28L-11.15 -2.67L357.29 -1.95L356.61 215L-11.83 214.28L-11.83 214.28Z" />
			</g>
		</g>
		<path id="svg_4" class="shp1" d="M345.9 51.23C250.78 51.23 173.9 25 173.9 -7.44C173.9 -39.88 250.78 -66.1 345.9 -66.1C441.01 -66.1 517.9 -39.88 517.9 -7.44C517.9 25 441.01 51.23 345.9 51.23Z" />
		<path id="svg_4 copy" class="shp1" d="M172.46 292.33C59.39 292.33 -32 267.45 -32 236.67C-32 205.88 59.39 181 172.46 181C285.52 181 376.91 205.88 376.91 236.67C376.91 267.45 285.52 292.33 172.46 292.33Z" />
		<g id="svg_11">
			<g id="svg_8">
				<g id="svg_9">
					<path id="svg_10" class="shp2" d="M402.9 -27L414.11 123.88C414.11 123.88 383.47 85.53 351.96 68.88C324.19 54.19 262.22 43.57 262.22 43.57L254 -11.27L402.9 -27Z" />
				</g>
			</g>
		</g>
	</g>
</svg>